<svg width="112" height="14" viewBox="0 0 112 14" fill="none" xmlns="http://www.w3.org/2000/svg">
<g clip-path="url(#clip0_155_7531)">
<path d="M25.5358 0.188353C25.6545 0.186657 25.7724 0.208627 25.8825 0.252982C25.9926 0.297338 26.0928 0.363188 26.1772 0.44669C26.2616 0.530191 26.3285 0.629669 26.374 0.739315C26.4195 0.848961 26.4428 0.966578 26.4423 1.0853V10.891H34.8213C34.9386 10.8889 35.0553 10.91 35.1645 10.9529C35.2738 10.9959 35.3735 11.06 35.458 11.1415C35.5424 11.223 35.61 11.3204 35.6569 11.428C35.7037 11.5356 35.7289 11.6515 35.731 11.7688V12.6371C35.7289 12.7544 35.7037 12.8702 35.6569 12.9779C35.61 13.0855 35.5424 13.1829 35.458 13.2644C35.3735 13.3459 35.2738 13.41 35.1645 13.453C35.0553 13.4959 34.9386 13.517 34.8213 13.5148H23.7228C23.4879 13.5235 23.2592 13.4386 23.0869 13.2788C22.9145 13.119 22.8126 12.8974 22.8035 12.6626V1.0853C22.803 0.965481 22.8266 0.84679 22.8729 0.736284C22.9192 0.625778 22.9873 0.525712 23.0731 0.442036C23.1588 0.35836 23.2605 0.292783 23.3721 0.249202C23.4838 0.205622 23.603 0.184929 23.7228 0.188353H25.5358Z" fill="#302F3B"/>
<path d="M37.1067 1.06611C37.0961 0.920042 37.1176 0.773406 37.1699 0.636593C37.2222 0.499779 37.3039 0.376133 37.4093 0.274412C37.5147 0.17269 37.6411 0.0953813 37.7797 0.0479595C37.9183 0.000537662 38.0656 -0.0158371 38.2112 -5.0785e-06H39.4018C39.5474 -0.0158371 39.6947 0.000537662 39.8333 0.0479595C39.9718 0.0953813 40.0983 0.17269 40.2037 0.274412C40.309 0.376133 40.3908 0.499779 40.443 0.636593C40.4953 0.773406 40.5169 0.920042 40.5062 1.06611V1.38531C40.5174 1.53164 40.4962 1.67864 40.4441 1.81585C40.3921 1.95306 40.3104 2.07711 40.205 2.1792C40.0995 2.28128 39.9729 2.35888 39.8341 2.40648C39.6953 2.45409 39.5477 2.47052 39.4018 2.45462H38.1984C38.0528 2.47046 37.9055 2.45408 37.7669 2.40666C37.6283 2.35924 37.5019 2.28193 37.3965 2.18021C37.2911 2.07849 37.2094 1.95484 37.1571 1.81803C37.1048 1.68121 37.0833 1.53458 37.094 1.3885L37.1067 1.06611ZM37.7451 13.5148C37.669 13.5182 37.593 13.5064 37.5216 13.48C37.4501 13.4537 37.3847 13.4133 37.3291 13.3612C37.2734 13.3092 37.2288 13.2465 37.1977 13.177C37.1667 13.1074 37.1499 13.0324 37.1482 12.9562V4.13041C37.1482 4.05374 37.1636 3.97784 37.1935 3.90724C37.2234 3.83664 37.2672 3.77278 37.3223 3.71947C37.3774 3.66616 37.4427 3.62448 37.5142 3.59692C37.5858 3.56936 37.6621 3.55648 37.7388 3.55905H39.887C39.9637 3.55648 40.0402 3.56935 40.112 3.59687C40.1837 3.6244 40.2492 3.66602 40.3045 3.71929C40.3599 3.77256 40.404 3.8364 40.4342 3.90701C40.4645 3.97762 40.4803 4.05359 40.4807 4.13041V12.9562C40.4803 13.033 40.4645 13.109 40.4342 13.1796C40.404 13.2502 40.3599 13.3141 40.3045 13.3673C40.2492 13.4206 40.1837 13.4622 40.112 13.4898C40.0402 13.5173 39.9637 13.5301 39.887 13.5276L37.7451 13.5148Z" fill="#302F3B"/>
<path d="M50.6343 7.61602C50.6343 6.03599 49.8842 5.38164 48.7989 5.38164C47.8413 5.38164 46.9252 6.02003 46.2166 6.71588V12.9562C46.2166 13.0329 46.2012 13.1088 46.1713 13.1794C46.1414 13.25 46.0976 13.3138 46.0425 13.3671C45.9874 13.4204 45.9222 13.4621 45.8506 13.4897C45.7791 13.5172 45.7027 13.5301 45.6261 13.5276H43.4747C43.3981 13.5301 43.3217 13.5172 43.2501 13.4897C43.1786 13.4621 43.1133 13.4204 43.0582 13.3671C43.0031 13.3138 42.9593 13.25 42.9294 13.1794C42.8995 13.1088 42.8841 13.0329 42.8842 12.9562V3.90375C42.8837 3.82695 42.8988 3.75085 42.9285 3.68004C42.9583 3.60924 43.002 3.5452 43.0572 3.49179C43.1124 3.43839 43.1779 3.39673 43.2496 3.36933C43.3214 3.34193 43.3979 3.32937 43.4747 3.33239H45.6261C45.7028 3.32937 45.7794 3.34193 45.8511 3.36933C45.9229 3.39673 45.9883 3.43839 46.0435 3.49179C46.0987 3.5452 46.1425 3.60924 46.1722 3.68004C46.202 3.75085 46.2171 3.82695 46.2166 3.90375V4.49427C47.1231 3.75054 48.1094 3.14087 49.5873 3.14087C52.1409 3.14087 53.9635 4.45596 53.9635 7.60963V12.9562C53.9636 13.0329 53.9482 13.1088 53.9183 13.1794C53.8884 13.25 53.8446 13.3138 53.7894 13.3671C53.7343 13.4204 53.6691 13.4621 53.5975 13.4897C53.526 13.5172 53.4496 13.5301 53.373 13.5276H51.212C51.1365 13.5284 51.0615 13.5142 50.9914 13.4859C50.9214 13.4576 50.8576 13.4156 50.8039 13.3625C50.7501 13.3093 50.7075 13.2461 50.6784 13.1763C50.6493 13.1066 50.6343 13.0318 50.6343 12.9562V7.61602Z" fill="#302F3B"/>
<path d="M59.6611 7.37028C60.8038 7.37028 61.5539 6.91064 61.9497 6.11265L62.8754 4.19746C63.0012 3.93789 63.1969 3.71854 63.4405 3.56405C63.6841 3.40955 63.9659 3.32603 64.2543 3.32286H66.0706C66.5813 3.32286 66.6419 3.7027 66.3898 4.19746L65.1449 6.73189C64.9483 7.1452 64.6625 7.50982 64.3082 7.79957C63.9539 8.08931 63.5398 8.29699 63.0957 8.40768C63.9032 8.63431 64.5544 9.16737 65.1449 10.0835L66.7824 12.637C67.1016 13.1318 66.9611 13.5148 66.4472 13.5148H64.6501C64.3498 13.5048 64.0569 13.4191 63.7985 13.2656C63.5402 13.1122 63.3248 12.896 63.1723 12.637L61.9497 10.7219C61.7064 10.3366 61.368 10.0204 60.9673 9.8035C60.5665 9.58663 60.1167 9.47639 59.6611 9.48337V12.9562C59.6611 13.0329 59.6457 13.1088 59.6158 13.1794C59.5859 13.25 59.5421 13.3139 59.487 13.3672C59.4319 13.4205 59.3667 13.4622 59.2951 13.4897C59.2236 13.5173 59.1472 13.5302 59.0706 13.5276H56.9224C56.8448 13.5315 56.7673 13.5196 56.6944 13.4927C56.6216 13.4657 56.5549 13.4243 56.4986 13.3709C56.4422 13.3175 56.3972 13.2532 56.3663 13.182C56.3355 13.1107 56.3194 13.0339 56.3191 12.9562V0.759704C56.3194 0.682042 56.3355 0.605254 56.3663 0.533979C56.3972 0.462705 56.4422 0.398423 56.4986 0.34502C56.5549 0.291616 56.6216 0.250198 56.6944 0.223268C56.7673 0.196339 56.8448 0.184457 56.9224 0.188341H59.0706C59.1472 0.185771 59.2236 0.19865 59.2951 0.226211C59.3667 0.253772 59.4319 0.29545 59.487 0.348765C59.5421 0.402079 59.5859 0.465938 59.6158 0.536537C59.6457 0.607137 59.6611 0.683033 59.6611 0.759704V7.37028Z" fill="#302F3B"/>
<path d="M71.2737 0.188323C71.3922 0.187057 71.5099 0.209322 71.6198 0.253831C71.7298 0.298339 71.8298 0.364207 71.9141 0.447623C71.9984 0.531038 72.0653 0.630345 72.111 0.739796C72.1567 0.849247 72.1802 0.96667 72.1802 1.08527V10.891H80.5591C80.6763 10.8889 80.7928 10.91 80.9019 10.953C81.0109 10.996 81.1104 11.0601 81.1947 11.1417C81.2789 11.2232 81.3462 11.3206 81.3927 11.4282C81.4392 11.5358 81.464 11.6516 81.4656 11.7688V12.637C81.464 12.7543 81.4392 12.87 81.3927 12.9776C81.3462 13.0852 81.2789 13.1826 81.1947 13.2642C81.1104 13.3457 81.0109 13.4099 80.9019 13.4529C80.7928 13.4959 80.6763 13.5169 80.5591 13.5148H69.4606C69.2266 13.52 68.9999 13.4328 68.8296 13.2721C68.6594 13.1114 68.5592 12.8901 68.5509 12.6562V1.08527C68.5509 0.966398 68.5745 0.84871 68.6204 0.739047C68.6662 0.629384 68.7335 0.529933 68.8181 0.446475C68.9028 0.363017 69.0031 0.297217 69.1134 0.252899C69.2237 0.208582 69.3418 0.186631 69.4606 0.188323H71.2737Z" fill="#302F3B"/>
<path d="M82.8445 1.06611C82.8338 0.920042 82.8553 0.773406 82.9076 0.636593C82.9599 0.499779 83.0416 0.376133 83.147 0.274412C83.2524 0.17269 83.3788 0.0953813 83.5174 0.0479595C83.656 0.000537662 83.8033 -0.0158371 83.9489 -5.07897e-06H85.1523C85.2979 -0.0158371 85.4452 0.000537662 85.5837 0.0479595C85.7223 0.0953813 85.8488 0.17269 85.9541 0.274412C86.0595 0.376133 86.1412 0.499779 86.1935 0.636593C86.2458 0.773406 86.2674 0.920042 86.2567 1.06611V1.38531C86.2674 1.53138 86.2458 1.67802 86.1935 1.81483C86.1412 1.95165 86.0595 2.07529 85.9541 2.17701C85.8488 2.27874 85.7223 2.35604 85.5837 2.40347C85.4452 2.45089 85.2979 2.46726 85.1523 2.45143H83.9489C83.8033 2.46726 83.656 2.45089 83.5174 2.40347C83.3788 2.35604 83.2524 2.27874 83.147 2.17701C83.0416 2.07529 82.9599 1.95165 82.9076 1.81483C82.8553 1.67802 82.8338 1.53138 82.8445 1.38531V1.06611ZM83.4829 13.5148C83.4068 13.5182 83.3308 13.5064 83.2593 13.48C83.1879 13.4536 83.1224 13.4132 83.0668 13.3612C83.0112 13.3092 82.9665 13.2465 82.9355 13.177C82.9044 13.1074 82.8876 13.0324 82.886 12.9562V4.13041C82.8859 4.05374 82.9013 3.97784 82.9312 3.90724C82.9611 3.83664 83.0049 3.77278 83.06 3.71947C83.1151 3.66616 83.1804 3.62448 83.2519 3.59692C83.3235 3.56936 83.3998 3.55648 83.4765 3.55905H85.6247C85.7013 3.55648 85.7777 3.56936 85.8492 3.59692C85.9208 3.62448 85.986 3.66616 86.0411 3.71947C86.0962 3.77278 86.14 3.83664 86.1699 3.90724C86.1998 3.97784 86.2152 4.05374 86.2152 4.13041V12.9562C86.2152 13.0329 86.1998 13.1088 86.1699 13.1794C86.14 13.25 86.0962 13.3138 86.0411 13.3672C85.986 13.4205 85.9208 13.4622 85.8492 13.4897C85.7777 13.5173 85.7013 13.5302 85.6247 13.5276L83.4829 13.5148Z" fill="#302F3B"/>
<path d="M93.1961 13.5212C92.9246 13.5173 92.6594 13.4386 92.4297 13.2939C92.1999 13.1492 92.0145 12.944 91.8937 12.7008L87.7442 4.14954C87.5271 3.69309 87.6835 3.3324 88.1368 3.3324H89.9913C90.2631 3.3331 90.5292 3.41005 90.7595 3.55451C90.9897 3.69896 91.1748 3.90512 91.2936 4.14954L93.9142 9.93978L96.5381 4.14954C96.655 3.90897 96.8361 3.70536 97.0614 3.56118C97.2867 3.41699 97.5474 3.33782 97.8148 3.3324H99.6694C100.123 3.3324 100.279 3.69309 100.062 4.14954L95.9124 12.7008C95.7929 12.9423 95.6096 13.1465 95.3822 13.2911C95.1549 13.4357 94.8922 13.5153 94.6229 13.5212H93.1961Z" fill="#302F3B"/>
<path d="M103.959 9.40673C104.097 10.9293 104.809 11.5964 106.424 11.5964C107.25 11.5964 107.981 11.3666 108.316 10.958C108.45 10.7965 108.62 10.6678 108.811 10.582C109.003 10.4962 109.211 10.4556 109.421 10.4633H110.861C110.938 10.4607 111.015 10.4738 111.087 10.5017C111.159 10.5297 111.224 10.5719 111.279 10.6259C111.334 10.6799 111.378 10.7445 111.408 10.8159C111.437 10.8872 111.452 10.9638 111.451 11.041C111.451 13.0232 109.341 13.7063 106.187 13.7063C102.676 13.7063 100.57 11.8805 100.57 8.43318C100.57 4.98585 102.699 3.1377 106.187 3.1377C109.676 3.1377 111.805 4.94755 111.805 8.29912V8.83218C111.806 8.90869 111.792 8.98459 111.762 9.05533C111.733 9.12607 111.69 9.1902 111.636 9.24385C111.581 9.29751 111.516 9.33959 111.445 9.36758C111.374 9.39557 111.298 9.40889 111.221 9.40673H103.959ZM103.94 7.44367H108.409C108.348 6.01686 107.64 5.25397 106.175 5.25397C104.71 5.25397 104.02 6.01686 103.94 7.44367Z" fill="#302F3B"/>
<path d="M6.6808 13.5212C10.3705 13.5212 13.3616 10.5301 13.3616 6.84035C13.3616 3.15064 10.3705 0.159546 6.6808 0.159546C2.9911 0.159546 0 3.15064 0 6.84035C0 10.5301 2.9911 13.5212 6.6808 13.5212Z" fill="#68B24C"/>
<path d="M9.93022 0.159597C11.4761 0.162594 12.9731 0.701582 14.166 1.6847C15.359 2.66782 16.1741 4.03422 16.4725 5.55102C16.7708 7.06782 16.5339 8.64114 15.8022 10.0028C15.0704 11.3645 13.8891 12.4303 12.4595 13.0186C11.0299 13.6068 9.44062 13.6811 7.96241 13.2288C6.48421 12.7765 5.20861 11.8255 4.35302 10.538C3.49744 9.2505 3.11482 7.70613 3.27037 6.16812C3.42593 4.6301 4.11003 3.19362 5.20609 2.10351C5.82648 1.48403 6.56326 0.993367 7.37402 0.65975C8.18477 0.326134 9.05351 0.156155 9.93022 0.159597Z" fill="#68B24C"/>
<path d="M19.8572 6.83715C19.855 8.38237 19.3171 9.87904 18.3353 11.0723C17.3535 12.2655 15.9884 13.0815 14.4726 13.3813C12.9567 13.6811 11.3838 13.4461 10.0217 12.7165C8.6596 11.9868 7.59255 10.8075 7.00227 9.37951C6.41199 7.95147 6.33498 6.36297 6.78436 4.88453C7.23374 3.40609 8.18171 2.12914 9.46684 1.27114C10.752 0.413142 12.2948 0.0271554 13.8325 0.178915C15.3703 0.330675 16.8079 1.0108 17.9005 2.10345C18.523 2.72424 19.0164 3.46216 19.3523 4.27462C19.6881 5.08709 19.8597 5.95802 19.8572 6.83715Z" fill="#68B24C"/>
<path d="M7.56807 1.14593C7.88727 0.826736 9.05554 0.59053 9.46092 0.421355C10.1463 0.253936 10.8493 0.169277 11.5549 0.169189C12.4741 0.169189 14.9352 0.54265 15.5384 1.14593C16.1417 1.74922 16.5184 5.9339 16.5184 6.8468C16.5184 7.7597 16.1449 11.954 15.5384 12.5509C14.932 13.1478 12.4741 13.5276 11.5549 13.5276C10.9988 13.5272 10.4433 13.4909 9.89183 13.4191C9.61094 13.3457 8.53205 13.2371 8.29584 13.0999C7.28399 12.5253 6.59771 8.09805 6.59771 6.84999C6.58814 5.91474 6.9616 1.74283 7.56807 1.14593Z" fill="#68B24C"/>
<path d="M13.1766 13.518H9.92715H8.30562H6.68091V6.84035V0.159546H8.30562H9.92715H13.1766V6.84035V13.518Z" fill="#68B24C"/>
<path d="M17.5623 6.84042C17.5635 6.26073 17.4504 5.68649 17.2295 5.15057C17.0085 4.61464 16.684 4.12757 16.2745 3.71722C15.8651 3.30687 15.3787 2.98132 14.8433 2.75919C14.3078 2.53706 13.7338 2.42273 13.1541 2.42273H6.68082C5.51172 2.42273 4.39049 2.88715 3.56381 3.71384C2.73713 4.54052 2.27271 5.66174 2.27271 6.83085C2.27271 7.99995 2.73713 9.12117 3.56381 9.94785C4.39049 10.7745 5.51172 11.239 6.68082 11.239H10.8304L13.9426 13.9936L13.4478 11.2294C14.562 11.155 15.6064 10.6605 16.3701 9.84588C17.1338 9.03122 17.5599 7.95708 17.5623 6.84042Z" fill="white"/>
<path d="M4.7401 7.65757C4.7401 7.03111 4.98896 6.43031 5.43193 5.98734C5.8749 5.54437 6.4757 5.29551 7.10216 5.29551H12.4328C12.9648 5.27812 13.4694 5.05467 13.8398 4.67231C14.2102 4.28996 14.4176 3.77863 14.4182 3.24626C14.4184 3.02025 14.3807 2.7958 14.3064 2.58233C13.9311 2.4786 13.5436 2.42494 13.1541 2.42273H6.68082C5.51172 2.42273 4.39049 2.88715 3.56381 3.71384C2.73713 4.54052 2.27271 5.66174 2.27271 6.83085C2.27271 7.99995 2.73713 9.12117 3.56381 9.94785C4.39049 10.7745 5.51172 11.239 6.68082 11.239H7.33518C7.45027 11.1416 7.55704 11.0349 7.65437 10.9198C7.92584 10.5871 8.10426 10.1884 8.17147 9.76427C7.81133 9.94712 7.41031 10.0346 7.00673 10.0182C6.60316 10.0019 6.21051 9.88239 5.8663 9.67106C5.52209 9.45974 5.23783 9.16367 5.04066 8.81116C4.84349 8.45865 4.74001 8.06147 4.7401 7.65757Z" fill="#302F3B"/>
<path d="M9.40669 8.01822C9.98315 8.01822 10.4505 7.5509 10.4505 6.97444C10.4505 6.39798 9.98315 5.93066 9.40669 5.93066C8.83023 5.93066 8.36292 6.39798 8.36292 6.97444C8.36292 7.5509 8.83023 8.01822 9.40669 8.01822Z" fill="#302F3B"/>
<path d="M14.2138 8.01822C14.7903 8.01822 15.2576 7.5509 15.2576 6.97444C15.2576 6.39798 14.7903 5.93066 14.2138 5.93066C13.6374 5.93066 13.17 6.39798 13.17 6.97444C13.17 7.5509 13.6374 8.01822 14.2138 8.01822Z" fill="#302F3B"/>
<path d="M11.8965 10.2527C12.1736 10.2518 12.4391 10.1411 12.6347 9.94488C12.8304 9.74863 12.9402 9.48281 12.9402 9.20569H10.8495C10.8495 9.48336 10.9598 9.74966 11.1561 9.94601C11.3525 10.1424 11.6188 10.2527 11.8965 10.2527Z" fill="#302F3B"/>
</g>
<defs>
<clipPath id="clip0_155_7531">
<rect width="112" height="14" fill="white"/>
</clipPath>
</defs>
</svg>
